# xmcd
#
# Track frame offsets: 
#        150
#        14600
#        32615
#        51225
#        65840
#        81082
#        98512
#        116420
#        128365
#        143520
#
# Disc length: 2053 seconds
#
# Revision: 2
# Processed by: cddbd v1.5.1PL0 Copyright (c) Steve Scherf et al.
# Submitted via: ExactAudioCopy v0.95a5
#
DISCID=7908030a
DTITLE=Delbert McClinton - I'm With You
DYEAR=1990
DGENRE=Blues
TTITLE0=Thats's The Way I Feel
TTITLE1=My Baby's Lovin'
TTITLE2=Go On
TTITLE3=Got You On My Mind
TTITLE4=Crazy 'Bout You
TTITLE5=I'm With You
TTITLE6=I Want To Love You
TTITLE7=Who's Foolin' Who
TTITLE8=The Real Thing
TTITLE9=My Love Is Burnin'
EXTD=
EXTT0=
EXTT1=
EXTT2=
EXTT3=
EXTT4=
EXTT5=
EXTT6=
EXTT7=
EXTT8=
EXTT9=
PLAYORDER=
